<?xml version="1.0" encoding="UTF-8"?>
<svg width="52px" height="52px" viewBox="0 0 52 52" version="1.1" xmlns="http://www.w3.org/2000/svg" xmlns:xlink="http://www.w3.org/1999/xlink">
    <!-- Generator: Sketch 53 (72520) - https://sketchapp.com -->
    <title>2</title>
    <desc>Created with Sketch.</desc>
    <g id="2" stroke="none" stroke-width="1" fill="none" fill-rule="evenodd">
        <path d="M32.846431,23.8151986 C48.1399505,20.3433836 54.1128947,23.758951 50.7652634,34.0619008 C47.417632,44.3648505 40.5777986,43.6172941 30.245763,31.8192315 C38.2736128,45.2913831 36.8709564,52.0274589 26.0377939,52.0274589 C15.2046314,52.0274589 13.8019751,45.2913831 21.8298248,31.8192315 C11.4977893,43.6172941 4.65795582,44.3648505 1.31032451,34.0619008 C-2.0373068,23.758951 3.93563733,20.3433836 19.2291569,23.8151986 C4.815758,17.6346507 1.99116482,11.3605902 10.7553774,4.99301705 C19.5195899,-1.3745561 24.6137288,3.25058298 26.0377939,18.8684343 C27.4618591,3.25058298 32.5559979,-1.3745561 41.3202105,4.99301705 C50.0844231,11.3605902 47.2598299,17.6346507 32.846431,23.8151986 L32.846431,23.8151986 Z" id="Path" fill="#FF1D56"></path>
    </g>
</svg>