<?xml version="1.0" encoding="UTF-8"?>
<svg width="52px" height="52px" viewBox="0 0 52 52" version="1.1" xmlns="http://www.w3.org/2000/svg" xmlns:xlink="http://www.w3.org/1999/xlink">
    <!-- Generator: Sketch 53 (72520) - https://sketchapp.com -->
    <title>3</title>
    <desc>Created with Sketch.</desc>
    <g id="3" stroke="none" stroke-width="1" fill="none" fill-rule="evenodd">
        <path d="M28.2566897,19.176927 C34.4372376,4.76352806 40.7112981,1.93893488 47.0788713,10.7031474 C53.4464444,19.46736 48.8213054,24.5614989 33.2034541,25.985564 C48.8213054,27.4096291 53.4464444,32.503768 47.0788713,41.2679806 C40.7112981,50.0321931 34.4372376,47.2075999 28.2566897,32.794201 C31.7285047,48.0877206 28.3129374,54.0606647 18.0099876,50.7130334 C7.7070378,47.3654021 8.45459422,40.5255687 20.2526569,30.1935331 C6.78050524,38.2213829 0.0444294355,36.8187265 0.0444294355,25.985564 C0.0444294355,15.1524015 6.78050524,13.7497451 20.2526569,21.7775949 C8.45459422,11.4455593 7.7070378,4.60572589 18.0099876,1.25809458 C28.3129374,-2.08953674 31.7285047,3.8834074 28.2566897,19.176927 L28.2566897,19.176927 Z" id="Path" fill="#FF2E49"></path>
    </g>
</svg>