<?xml version="1.0" encoding="UTF-8"?>
<svg width="52px" height="52px" viewBox="0 0 52 52" version="1.1" xmlns="http://www.w3.org/2000/svg" xmlns:xlink="http://www.w3.org/1999/xlink">
    <!-- Generator: Sketch 53 (72520) - https://sketchapp.com -->
    <title>5</title>
    <desc>Created with Sketch.</desc>
    <g id="5" stroke="none" stroke-width="1" fill="none" fill-rule="evenodd">
        <path d="M30.254685,20.2082274 C40.5867205,8.41016479 47.426554,7.66260837 50.7741853,17.9655581 C54.1218166,28.2685079 48.1488725,31.6840753 32.8553529,28.2122603 C47.2687518,34.3928082 50.093345,40.6668687 41.3291324,47.0344419 C32.5649199,53.402015 27.470781,48.7768759 26.0467159,33.1590246 C24.6226507,48.7768759 19.5285119,53.402015 10.7642993,47.0344419 C2.00008675,40.6668687 4.82467993,34.3928082 19.2380789,28.2122603 C3.94455927,31.6840753 -2.02838486,28.2685079 1.31924645,17.9655581 C4.66687776,7.66260837 11.5067112,8.41016479 21.8387468,20.2082274 C13.810897,6.73607581 15.2135534,-1.94210252e-14 26.0467159,-2.13162821e-14 C36.8798784,-2.13162821e-14 38.2825347,6.73607581 30.254685,20.2082274 L30.254685,20.2082274 Z" id="Path" fill="#FF5E83"></path>
    </g>
</svg>